<svg xmlns="http://www.w3.org/2000/svg" viewBox="0 0 486 241"><defs><style>.a{fill:#fff;}</style></defs><path d="M39.2,106.12H64.61v36.63c0,18.48-9.24,29-27.06,29s-27.06-10.56-27.06-29V82.69c0-18.48,9.24-29,27.06-29s27.06,10.56,27.06,29V93.91H47.45V81.53c0-8.25-3.63-11.38-9.41-11.38s-9.4,3.13-9.4,11.38V143.9c0,8.25,3.63,11.22,9.4,11.22s9.41-3,9.41-11.22V122.62H39.2Z"/><path d="M71,55h56.1v16.5h-19v99H90v-99H71Z"/><path d="M158.49,55c17.65,0,24.74,12.7,24.74,28.87v57.92c0,16-7.09,28.71-24.58,28.71H135.06V55Zm.16,113.85c16.66,0,22.93-11.88,22.93-27.06V83.84c0-15.34-6.43-27.22-23.09-27.22H136.71v112.2Z"/><path d="M219,55c16.5,0,21.61,8.42,21.61,23.59v7.92c0,12.87-3.46,20.79-17.16,22.44,14.19,1.65,19.47,11.22,19.47,24.75v10.4c0,16.17-6.6,26.4-23.92,26.4H196.43V55Zm-4.95,53.13c17.32,0,24.91-3.8,24.91-21.62V78.56c0-14.35-4.45-21.94-20-21.94h-21V108.1ZM219,168.82c16.33,0,22.27-9.41,22.27-24.75v-10.4c0-17.49-8.58-23.92-25.41-23.92H198.08v59.07Z"/><rect y="173" width="298" height="3" rx="0.86"/><rect x="200" y="143" width="193" height="3" rx="0.86" transform="translate(441 -152) rotate(90)"/><rect x="295" y="48" width="70" height="3" rx="0.86" transform="translate(660 99) rotate(-180)"/><rect x="362" y="107" width="71" height="3" rx="0.86" transform="translate(795 217) rotate(-180)"/><rect x="362" width="124" height="3" rx="0.86" transform="translate(848 3) rotate(-180)"/><rect x="308.5" y="53.5" width="110" height="3" rx="0.86" transform="translate(418.5 -308.5) rotate(90)"/><rect x="295" y="238" width="166" height="3" rx="0.86" transform="translate(756 479) rotate(-180)"/><path class="a" d="M306.39,139.72H338.6v9.48H327.71V206H317.29V149.2h-10.9Z"/><path class="a" d="M356.79,179.61l-3.22,6.06V206H343.15V139.72h10.42v28.9l13.64-28.9h10.42l-14.49,29.56L377.63,206h-10.7Z"/></svg>